<svg width="1280" height="382" viewBox="0 0 1280 382" fill="none" xmlns="http://www.w3.org/2000/svg">
<path d="M422.236 242.057C402.027 242.057 385.644 226.288 385.644 206.832C385.644 187.385 402.027 171.615 422.236 171.615C425.324 157.77 436.333 146.471 451.112 141.969C465.885 137.474 482.197 140.452 493.889 149.826C505.58 159.177 510.876 173.454 507.796 187.299H515.575C530.607 187.299 542.794 199.556 542.794 214.69C542.794 229.831 530.607 242.089 515.567 242.089H422.236" stroke="#54B8F0" stroke-width="12.5122" stroke-linecap="round" stroke-linejoin="round"/>
<path d="M604.176 233.5V148.814H616.965V189.282H617.988L653.567 148.814H669.538L635.436 186.894L669.708 233.5H654.306L626.911 195.704L616.965 207.242V233.5H604.176ZM712.051 207.242V169.957H724.328V233.5H712.278V222.474H711.596C710.081 225.846 707.732 228.669 704.549 230.942C701.366 233.216 697.387 234.334 692.613 234.296C688.521 234.296 684.902 233.405 681.758 231.624C678.651 229.844 676.207 227.172 674.426 223.611C672.683 220.049 671.811 215.635 671.811 210.368V169.957H684.088V208.947C684.088 213.229 685.3 216.658 687.725 219.234C690.15 221.811 693.276 223.08 697.103 223.042C699.415 223.042 701.707 222.474 703.98 221.337C706.292 220.2 708.205 218.457 709.721 216.108C711.274 213.759 712.051 210.803 712.051 207.242ZM736.15 233.5V169.957H747.915V180.415H748.767C750.093 176.891 752.253 174.144 755.246 172.174C758.278 170.166 761.877 169.162 766.045 169.162C770.289 169.162 773.832 170.166 776.674 172.174C779.553 174.144 781.694 176.891 783.096 180.415H783.778C785.294 176.967 787.7 174.239 790.996 172.231C794.293 170.185 798.214 169.162 802.761 169.162C808.521 169.162 813.238 170.98 816.914 174.618C820.589 178.218 822.427 183.655 822.427 190.93V233.5H810.036V192.067C810.036 187.747 808.862 184.64 806.513 182.745C804.163 180.813 801.359 179.847 798.101 179.847C794.084 179.847 790.958 181.097 788.723 183.598C786.525 186.061 785.426 189.187 785.426 192.976V233.5H773.036V191.271C773.036 187.823 771.975 185.057 769.853 182.973C767.731 180.889 764.946 179.847 761.498 179.847C759.149 179.847 756.971 180.472 754.962 181.722C752.992 182.935 751.401 184.64 750.188 186.838C749.013 188.997 748.426 191.498 748.426 194.34V233.5H736.15ZM860.905 234.807C854.956 234.807 849.746 233.443 845.275 230.715C840.841 227.987 837.393 224.16 834.931 219.234C832.506 214.308 831.293 208.587 831.293 202.07C831.293 195.477 832.506 189.717 834.931 184.792C837.393 179.828 840.841 175.982 845.275 173.254C849.746 170.526 854.956 169.162 860.905 169.162C866.891 169.162 872.101 170.526 876.534 173.254C880.968 175.982 884.416 179.828 886.879 184.792C889.342 189.717 890.573 195.477 890.573 202.07C890.573 208.587 889.342 214.308 886.879 219.234C884.416 224.16 880.968 227.987 876.534 230.715C872.101 233.443 866.891 234.807 860.905 234.807ZM860.905 224.406C864.807 224.406 868.028 223.383 870.567 221.337C873.105 219.291 874.981 216.582 876.193 213.21C877.444 209.799 878.069 206.086 878.069 202.07C878.069 197.978 877.444 194.226 876.193 190.816C874.981 187.406 873.105 184.678 870.567 182.632C868.028 180.586 864.807 179.563 860.905 179.563C857.04 179.563 853.838 180.586 851.299 182.632C848.799 184.678 846.923 187.406 845.673 190.816C844.422 194.226 843.797 197.978 843.797 202.07C843.797 206.086 844.422 209.799 845.673 213.21C846.923 216.582 848.799 219.291 851.299 221.337C853.838 223.383 857.04 224.406 860.905 224.406Z" fill="#54B8F0"/>
</svg>
